<?xml version="1.0" encoding="utf-8"?>
<svg xmlns="http://www.w3.org/2000/svg" viewBox="0 0 500 500" xmlns:bx="https://boxy-svg.com" width="500px" height="500px"><path style="stroke: rgb(0, 0, 0); stroke-opacity: 0; fill-rule: nonzero; fill: rgb(39, 174, 96);" d="M 60.255 171.159 C 88.729 133.685 145.678 40.001 460 40.001 C 439.944 144.476 433.029 210.594 427.14 257.499 C 405.269 234.406 374.316 220.001 340 220.001 C 273.726 220.001 220 273.727 220 340.001 C 220 388.955 249.314 431.062 291.345 449.727 C 239.628 467.027 182.938 462.435 142.556 436.282 C 158.696 368.696 195.218 277.392 377.827 94.783 C 176.957 213.479 113.044 332.174 103.787 401.126 C 20.102 307.936 33.962 205.76 60.255 171.159 Z" id="object-0"/><defs><bx:grid x="0" y="0.001" width="10" height="10"/><bx:export><bx:file format="svg" path="無題.svg"/><bx:file format="svg" href="#object-0" path="無題 2.svg"/></bx:export></defs><ellipse style="stroke-width: 1; fill: rgb(231, 76, 60);" cx="340" cy="340.001" rx="110" ry="110"/></svg>